<?xml version="1.0" encoding="UTF-8" standalone="no"?>
<!DOCTYPE svg PUBLIC "-//W3C//DTD SVG 1.1//EN" "http://www.w3.org/Graphics/SVG/1.1/DTD/svg11.dtd">
<svg width="100%" height="100%" viewBox="0 0 600 600" version="1.1" xmlns="http://www.w3.org/2000/svg" xmlns:xlink="http://www.w3.org/1999/xlink" xml:space="preserve" xmlns:serif="http://www.serif.com/" style="fill-rule:evenodd;clip-rule:evenodd;stroke-linejoin:round;stroke-miterlimit:2;">
    <g id="defold-white-logo" transform="matrix(1.07914,0,0,1.15385,129.496,91.1538)">
        <rect x="-120" y="-79" width="556" height="520" style="fill:none;"/>
        <g id="Logos" transform="matrix(0.926667,0,0,0.866667,-120,-166.533)">
            <g transform="matrix(1,0,0,1,325.359,561.054)">
                <path d="M0,9.892L0,-0C0,-0.604 -0.322,-1.162 -0.846,-1.465L-9.388,-6.405C-9.914,-6.709 -10.563,-6.709 -11.089,-6.405L-19.631,-1.465C-20.155,-1.162 -20.477,-0.604 -20.477,-0L-20.477,9.892C-20.477,10.496 -20.155,11.054 -19.631,11.356L-11.089,16.297C-10.563,16.601 -9.914,16.601 -9.388,16.297L-0.846,11.357C-0.322,11.054 0,10.496 0,9.892M8.8,4.946C8.8,15.439 0.276,23.946 -10.238,23.946C-20.753,23.946 -29.277,15.439 -29.277,4.946C-29.277,-5.548 -20.753,-14.054 -10.238,-14.054C0.276,-14.054 8.8,-5.548 8.8,4.946M69.721,4.622C69.721,-1.917 65.311,-5.98 58.214,-5.98L53.66,-5.98L53.66,15.335L58.214,15.335C65.311,15.335 69.721,11.272 69.721,4.732L69.721,4.622ZM78.992,4.458L78.992,4.567C78.992,9.914 77.084,14.492 73.474,17.805C69.696,21.27 64.285,23.102 57.826,23.102L44.665,23.102L44.665,-13.748L58.047,-13.748C70.771,-13.748 78.992,-6.602 78.992,4.458M23.29,-13.748L14.293,-13.748L14.293,23.102L39.348,23.102L39.348,15.446L23.29,15.446L23.29,-13.748ZM-58.213,-13.748L-58.213,23.102L-49.217,23.102L-49.217,9.332L-34.861,9.332L-34.861,2.171L-49.217,2.171L-49.217,-6.09L-31.603,-6.09L-31.603,-13.748L-58.213,-13.748ZM-81.315,8.496L-66.02,8.496L-66.02,1.181L-81.315,1.181L-81.315,-6.366L-63.427,-6.366L-63.427,-13.748L-90.201,-13.748L-90.201,23.102L-63.151,23.102L-63.151,15.722L-81.315,15.722L-81.315,8.496ZM-103.803,4.622C-103.803,-1.917 -108.212,-5.98 -115.31,-5.98L-119.864,-5.98L-119.864,15.335L-115.31,15.335C-108.212,15.335 -103.803,11.272 -103.803,4.732L-103.803,4.622ZM-94.531,4.458L-94.531,4.567C-94.531,9.914 -96.44,14.492 -100.05,17.805C-103.827,21.27 -109.238,23.102 -115.696,23.102L-128.859,23.102L-128.859,-13.748L-115.477,-13.748C-102.753,-13.748 -94.531,-6.602 -94.531,4.458M85.909,-11.864L84.736,-13.748L83.678,-13.748L83.678,-9.294L84.64,-9.294L84.64,-12.182L85.884,-10.299L85.909,-10.299L87.166,-12.201L87.166,-9.294L88.141,-9.294L88.141,-13.748L87.082,-13.748L85.909,-11.864ZM79.009,-13.748L82.707,-13.748L82.707,-12.844L81.349,-12.844L81.349,-9.294L80.367,-9.294L80.367,-12.844L79.009,-12.844L79.009,-13.748Z" style="fill:white;fill-rule:nonzero;"/>
            </g>
            <g transform="matrix(1,0,0,1,450.739,342.142)">
                <path d="M0,49.716L-51.123,20.321L-51.123,79.111L-96.985,52.741L-96.985,-6.049L-148.109,-35.444L-148.109,-88.184L-96.986,-58.789L-96.985,-117.579L-51.123,-91.209L-51.123,-32.419L0,-3.024L0,49.716ZM-45.862,79.111L-45.862,29.396L-2.63,54.253L-45.862,79.111ZM-51.123,137.901L-94.355,113.043L-51.123,88.185L-51.123,137.901ZM-99.616,168.809L-150.739,139.414L-201.862,168.809L-247.724,142.438L-196.601,113.044L-247.724,83.648L-201.863,57.278L-150.739,86.673L-99.616,57.278L-53.753,83.648L-104.877,113.043L-53.754,142.438L-99.616,168.809ZM-298.848,54.253L-255.616,29.396L-255.616,79.111L-298.848,54.253ZM-156,-92.722L-199.232,-67.864L-199.232,-117.579L-156,-92.722ZM-199.232,0.001L-153.37,26.371L-153.37,79.111L-199.232,52.741L-199.232,0.001ZM-104.877,-4.537L-150.739,21.833L-196.601,-4.537L-150.739,-30.907L-104.877,-4.537ZM-45.862,-35.444L-45.862,-94.234L-99.616,-125.142L-150.739,-95.747L-201.862,-125.141L-255.616,-94.234L-255.616,-35.444L-306.739,-6.049L-306.739,55.766L-255.616,85.161L-255.616,143.951L-201.862,174.858L-150.739,145.464L-99.616,174.858L-45.862,143.95L-45.862,85.161L5.261,55.766L5.261,-6.049L-45.862,-35.444Z" style="fill:white;fill-rule:nonzero;"/>
            </g>
        </g>
    </g>
</svg>
